<svg xmlns="http://www.w3.org/2000/svg" version="1.1" width="2100" height="2100"><path d="M876.7949192431124 400L1050.0000000000002 300L1223.2050807568878 400L1223.2050807568878 2000L1050.0000000000002 2100L876.7949192431124 2000Z" fill="#483000"/><path d="M876.7949192431124 400L1050.0000000000002 500L1050.0000000000002 2100L876.7949192431124 2000Z" fill="#00000026"/><path d="M1050.0000000000002 500L1223.2050807568878 400L1223.2050807568878 2000L1050.0000000000002 2100Z" fill="#00000066"/><path d="M183.97459621556152 800L357.17967697244916 700L357.17967697244916 900L183.97459621556152 1000Z" fill="#00500025"/><path d="M357.17967697244916 500L530.3847577293369 400L530.3847577293369 600L357.17967697244916 700Z" fill="#00500025"/><path d="M530.3847577293369 600L876.7949192431124 400L876.7949192431124 600L530.3847577293369 800Z" fill="#00500025"/><path d="M703.5898384862247 100L876.7949192431124 0L876.7949192431124 200L703.5898384862247 300Z" fill="#00500025"/><path d="M1050.0000000000002 100L1223.2050807568878 0L1223.2050807568878 200Z" fill="#00500025"/><path d="M183.97459621556152 1000L876.7949192431124 600L876.7949192431124 1000L1050.0000000000002 1100L1223.2050807568878 1000L1223.2050807568878 600L1916.0254037844384 1000L1050.0000000000002 1500Z" fill="#0060001f"/><path d="M357.17967697244916 700L530.3847577293369 600L530.3847577293369 800Z" fill="#004e0046"/><path d="M357.17967697244916 700L530.3847577293369 800L357.17967697244916 900Z" fill="#00500044"/><path d="M530.3847577293369 400L703.5898384862247 300L703.5898384862247 500L530.3847577293369 600Z" fill="#00500044"/><path d="M703.5898384862247 300L876.7949192431124 200L876.7949192431124 400Z" fill="#004f0060"/><path d="M703.5898384862247 300L876.7949192431124 400L703.5898384862247 500Z" fill="#0050005f"/><path d="M876.7949192431124 0L1050.0000000000002 100L876.7949192431124 200Z" fill="#00590021"/><path d="M1223.2050807568878 0L1396.4101615137756 100L1396.4101615137756 300L1223.2050807568878 200Z" fill="#00590021"/><path d="M1223.2050807568878 400L1569.6152422706632 600L1569.6152422706632 800L1223.2050807568878 600Z" fill="#00590021"/><path d="M1569.6152422706632 400L1742.8203230275512 500L1742.8203230275512 700L1569.6152422706632 600Z" fill="#00590021"/><path d="M1742.8203230275512 700L1916.0254037844384 800L1916.0254037844384 1000L1742.8203230275512 900Z" fill="#00590021"/><path d="M876.7949192431124 200L1050.0000000000002 100L1223.2050807568878 200L1050.0000000000002 300Z" fill="#0057004d"/><path d="M876.7949192431124 200L1050.0000000000002 300L876.7949192431124 400Z" fill="#00540041"/><path d="M876.7949192431124 400L1050.0000000000002 300L1223.2050807568878 400L1223.2050807568878 1000L1050.0000000000002 1100L876.7949192431124 1000Z" fill="#00600010"/><path d="M1050.0000000000002 300L1223.2050807568878 200L1223.2050807568878 400Z" fill="#00550041"/><path d="M1223.2050807568878 200L1396.4101615137756 300L1223.2050807568878 400Z" fill="#0054005b"/><path d="M1223.2050807568878 400L1396.4101615137756 300L1396.4101615137756 500Z" fill="#00590057"/><path d="M1396.4101615137756 300L1569.6152422706632 400L1569.6152422706632 600L1396.4101615137756 500Z" fill="#0059003e"/><path d="M1569.6152422706632 800L1742.8203230275512 700L1742.8203230275512 900Z" fill="#0059003e"/><path d="M1569.6152422706632 600L1742.8203230275512 700L1569.6152422706632 800Z" fill="#00520043"/><path d="M183.97459621556152 800L357.17967697244916 900L357.17967697244916 700L876.7949192431124 1000L876.7949192431124 1200L1050.0000000000002 1300L1050.0000000000002 1500L183.97459621556152 1000Z" fill="#00000002"/><path d="M357.17967697244916 500L530.3847577293369 600L357.17967697244916 700Z" fill="#00000002"/><path d="M530.3847577293369 400L703.5898384862247 500L703.5898384862247 300L876.7949192431124 400L876.7949192431124 600L1050.0000000000002 700L1050.0000000000002 900L530.3847577293369 600Z" fill="#00000002"/><path d="M703.5898384862247 100L876.7949192431124 200L703.5898384862247 300Z" fill="#00000002"/><path d="M1050.0000000000002 300L1223.2050807568878 400L1223.2050807568878 600L1050.0000000000002 500Z" fill="#00000002"/><path d="M1050.0000000000002 900L1223.2050807568878 1000L1223.2050807568878 1200L1050.0000000000002 1100Z" fill="#00000002"/><path d="M876.7949192431124 400L1050.0000000000002 300L1050.0000000000002 500L876.7949192431124 600Z" fill="#00000006"/><path d="M876.7949192431124 1000L1050.0000000000002 900L1050.0000000000002 1100L876.7949192431124 1200Z" fill="#00000006"/><path d="M1050.0000000000002 700L1223.2050807568878 600L1223.2050807568878 400L1396.4101615137756 300L1396.4101615137756 500L1569.6152422706632 400L1569.6152422706632 600L1050.0000000000002 900Z" fill="#00000006"/><path d="M1050.0000000000002 1300L1223.2050807568878 1200L1223.2050807568878 1000L1742.8203230275512 700L1742.8203230275512 900L1916.0254037844384 800L1916.0254037844384 1000L1050.0000000000002 1500Z" fill="#00000006"/><path d="M1223.2050807568878 200L1396.4101615137756 100L1396.4101615137756 300Z" fill="#00000006"/><path d="M1569.6152422706632 600L1742.8203230275512 500L1742.8203230275512 700Z" fill="#00000006"/></svg>
